<svg width="48" height="48" viewBox="0 0 48 48" fill="none" xmlns="http://www.w3.org/2000/svg">
<path d="M0 24C0 10.7452 10.7452 0 24 0C37.2548 0 48 10.7452 48 24C48 37.2548 37.2548 48 24 48C10.7452 48 0 37.2548 0 24Z" fill="#EFF1F5"/>
<path d="M32 17H28.83L27 15H21L19.17 17H16C14.9 17 14 17.9 14 19V31C14 32.1 14.9 33 16 33H32C33.1 33 34 32.1 34 31V19C34 17.9 33.1 17 32 17ZM32 31H16V19H20.05L21.88 17H26.12L27.95 19H32V31ZM24 20C21.24 20 19 22.24 19 25C19 27.76 21.24 30 24 30C26.76 30 29 27.76 29 25C29 22.24 26.76 20 24 20ZM24 28C22.35 28 21 26.65 21 25C21 23.35 22.35 22 24 22C25.65 22 27 23.35 27 25C27 26.65 25.65 28 24 28Z" fill="#3F465B"/>
</svg>
