<svg width="47" height="48" viewBox="0 0 47 48" fill="none" xmlns="http://www.w3.org/2000/svg">
<path d="M19.2133 35.3017C18.2492 38.5617 18.6978 42.077 20.4506 44.9899L20.4943 45.0635L13.8785 40.431L20.4869 30.9956L19.2133 35.3017ZM20.7073 24.9743C21.9138 25.819 22.2068 27.482 21.3622 28.6884L13.3829 40.0841L11.1984 38.5544L20.7073 24.9743ZM20.7056 18.0024C22.241 19.0776 22.6141 21.1938 21.5391 22.7293L10.7017 38.2067L9.50708 37.3701C8.96698 36.992 8.46813 36.5767 8.00954 36.1319L20.7056 18.0024ZM20.7058 9.75901C22.5703 11.0646 23.0234 13.635 21.718 15.4996L7.57802 35.6923C6.53641 34.5734 5.73826 33.2869 5.19379 31.9112L20.7058 9.75901ZM20.7043 0.246588C22.8979 1.78253 23.4309 4.80619 21.8951 6.99983L4.93983 31.2132C3.80636 27.7434 4.24748 23.8057 6.47085 20.5729L20.7043 0.246588Z" fill="#BF3535"/>
<path d="M27.3872 35.3012C28.3515 38.5614 27.9018 42.0772 26.1488 44.9902L26.1093 45.0566L32.7196 40.4281L26.1137 30.9951L27.3872 35.3012ZM25.8921 24.9746C24.686 25.8194 24.3926 27.4824 25.2372 28.6887L33.2151 40.0811L35.3996 38.5515L25.8921 24.9746ZM25.894 18.0018C24.3585 19.077 23.9852 21.1941 25.0604 22.7296L35.8963 38.2037L37.0864 37.3704C37.6279 36.9913 38.128 36.5748 38.5875 36.1288L25.894 18.0018ZM25.8937 9.75931C24.0293 11.0649 23.5762 13.6344 24.8816 15.4989L39.0192 35.6883C40.0603 34.5689 40.8578 33.2819 41.4017 31.9058L25.8937 9.75931ZM25.8931 0.24751C23.6994 1.78353 23.1662 4.8071 24.7023 7.00075L41.6553 31.2098C42.7973 27.7103 42.3374 23.7349 40.0634 20.4873L28.6573 4.19768L28.6592 4.19802L25.8931 0.24751Z" fill="#BF3535"/>
</svg>
