<svg width="16" height="16" viewBox="0 0 16 16" fill="none" xmlns="http://www.w3.org/2000/svg">
<path d="M7.33333 4C9.36092 4.05223 11.3426 3.39167 12.9333 2.13333C13.0324 2.05905 13.1502 2.01381 13.2735 2.00269C13.3968 1.99158 13.5207 2.01501 13.6315 2.07038C13.7422 2.12575 13.8353 2.21086 13.9004 2.31618C13.9655 2.4215 14 2.54286 14 2.66667V10.6667C14 10.7905 13.9655 10.9118 13.9004 11.0172C13.8353 11.1225 13.7422 11.2076 13.6315 11.2629C13.5207 11.3183 13.3968 11.3418 13.2735 11.3306C13.1502 11.3195 13.0324 11.2743 12.9333 11.2C11.3426 9.94166 9.36092 9.2811 7.33333 9.33333H3.33333C2.97971 9.33333 2.64057 9.19286 2.39052 8.94281C2.14048 8.69276 2 8.35362 2 8V5.33333C2 4.97971 2.14048 4.64057 2.39052 4.39052C2.64057 4.14048 2.97971 4 3.33333 4H7.33333Z" stroke="white" stroke-linecap="round" stroke-linejoin="round"/>
<path d="M4.3999 9.20001C4.3999 10.7579 5.07361 12.2737 6.3199 13.52C6.57451 13.7746 6.95354 13.9429 7.37362 13.9879C7.7937 14.033 8.22042 13.951 8.5599 13.76C8.89937 13.5691 9.1238 13.2848 9.18382 12.9697C9.24383 12.6547 9.1345 12.3346 8.8799 12.08C8.04904 11.2491 7.5999 10.2386 7.5999 9.20001" stroke="white" stroke-linejoin="round"/>
<path d="M6 4.66669L6 8.66669" stroke="white" stroke-linecap="round" stroke-linejoin="round"/>
</svg>
