<svg width="16" height="16" viewBox="0 0 16 16" fill="none" xmlns="http://www.w3.org/2000/svg">
<path d="M3.84058 6.118V14.6667H12.1591V6.118C12.1591 5.56716 11.9319 5.04071 11.5311 4.66282L9.37186 2.62695C8.60141 1.90053 7.39828 1.90053 6.62782 2.62695L4.46856 4.66282C4.06777 5.0407 3.84058 5.56716 3.84058 6.118Z" stroke="white" stroke-linecap="round"/>
<path d="M13.5975 8.14494L12.1592 7.29889V14.6667H13.2501C13.9865 14.6667 14.5834 14.0697 14.5834 13.3334V9.86881C14.5834 9.16008 14.2083 8.50428 13.5975 8.14494Z" stroke="white" stroke-linecap="round"/>
<path d="M2.40229 8.14494L3.84058 7.29889V14.6667H2.74966C2.01328 14.6667 1.41633 14.0697 1.41633 13.3334V9.86881C1.41633 9.16008 1.79141 8.50428 2.40229 8.14494Z" stroke="white" stroke-linecap="round"/>
<path d="M7.99976 4.85513V8.00001" stroke="white" stroke-linecap="round"/>
<path d="M9.30704 6.1055H6.69263" stroke="white" stroke-linecap="round"/>
<path d="M6.48267 12.405C6.48267 11.567 7.16196 10.8877 7.99992 10.8877C8.83787 10.8877 9.51717 11.567 9.51717 12.405V14.6667H6.48267V12.405Z" stroke="white"/>
</svg>
