<svg width="16" height="16" viewBox="0 0 16 16" fill="none" xmlns="http://www.w3.org/2000/svg">
<g clip-path="url(#clip0_10200_1259)">
<path d="M14.5272 6.5695C14.4537 6.27558 14.3039 6.00629 14.0929 5.78882C13.8819 5.57134 13.6173 5.41339 13.3258 5.33091C12.2606 5.0708 7.99986 5.0708 7.99986 5.0708C7.99986 5.0708 3.73911 5.0708 2.67392 5.35568C2.38238 5.43816 2.11778 5.59611 1.90683 5.81359C1.69588 6.03106 1.54605 6.30036 1.47249 6.59427C1.27754 7.67528 1.18218 8.7719 1.18761 9.87034C1.18066 10.9771 1.27603 12.082 1.47249 13.1712C1.55359 13.456 1.70677 13.715 1.91723 13.9233C2.12769 14.1316 2.38831 14.2821 2.67392 14.3602C3.73911 14.6451 7.99986 14.6451 7.99986 14.6451C7.99986 14.6451 12.2606 14.6451 13.3258 14.3602C13.6173 14.2778 13.8819 14.1198 14.0929 13.9023C14.3039 13.6849 14.4537 13.4156 14.5272 13.1216C14.7207 12.0488 14.816 10.9605 14.8121 9.87034C14.8191 8.76363 14.7237 7.65865 14.5272 6.5695Z" stroke="white" stroke-linecap="round" stroke-linejoin="round"/>
<path d="M2.06616 5.396V4.59779C2.13304 4.33061 2.26923 4.08581 2.461 3.88812C2.65276 3.69042 2.8933 3.54683 3.15832 3.47186C4.12662 3.21289 7.99983 3.21289 7.99983 3.21289C7.99983 3.21289 11.873 3.21289 12.8413 3.44934C13.1064 3.52432 13.3469 3.6679 13.5387 3.8656C13.7304 4.06329 13.8666 4.30809 13.9335 4.57527V5.396" stroke="white" stroke-linecap="round" stroke-linejoin="round"/>
<path d="M2.65967 3.60106V2.60139C2.71985 2.36093 2.84243 2.14061 3.01502 1.96268C3.18761 1.78476 3.40409 1.65553 3.64261 1.58805C4.51408 1.35498 7.99997 1.35498 7.99997 1.35498C7.99997 1.35498 11.4859 1.35498 12.3573 1.56778C12.5959 1.63526 12.8123 1.76449 12.9849 1.94242C13.1575 2.12034 13.2801 2.34066 13.3403 2.58112V3.60106" stroke="white" stroke-linecap="round" stroke-linejoin="round"/>
<path d="M6.60645 11.8954L10.1674 9.87031L6.60645 7.84521V11.8954Z" stroke="white" stroke-linecap="round" stroke-linejoin="round"/>
</g>
<defs>
<clipPath id="clip0_10200_1259">
<rect width="16" height="16" fill="white"/>
</clipPath>
</defs>
</svg>
