<svg width="16" height="16" viewBox="0 0 16 16" fill="none" xmlns="http://www.w3.org/2000/svg">
<path d="M9.34797 7.28071L8.31712 2.7325C8.15464 2.01562 8.69961 1.33331 9.43468 1.33331C9.86919 1.33331 10.2663 1.57907 10.4602 1.96793L14.1415 9.35171C14.476 10.0227 14.5127 10.8035 14.2424 11.5029L13.6787 12.9613C13.2815 13.989 12.2931 14.6666 11.1913 14.6666H10.6667C9.19391 14.6666 8 13.4727 8 12V8.64018C8 7.88937 8.60866 7.28071 9.35948 7.28071C10.1103 7.28071 10.719 7.88937 10.719 8.64018V11.3755" stroke="white" stroke-linecap="round"/>
<path d="M6.65203 7.28071L7.68288 2.7325C7.84536 2.01562 7.30039 1.33331 6.56532 1.33331C6.13081 1.33331 5.73368 1.57907 5.53981 1.96793L1.85849 9.35171C1.52395 10.0227 1.48735 10.8035 1.75764 11.5029L2.3213 12.9613C2.7185 13.989 3.70686 14.6666 4.80866 14.6666H5.33333C6.80609 14.6666 8 13.4727 8 12V8.64018C8 7.88937 7.39134 7.28071 6.64052 7.28071C5.8897 7.28071 5.28105 7.88937 5.28105 8.64018V11.3755" stroke="white" stroke-linecap="round"/>
</svg>

